<svg width="24" height="24" viewBox="0 0 24 24" fill="none" xmlns="http://www.w3.org/2000/svg">
<g clip-path="url(#clip0_368_6049)">
<path fill-rule="evenodd" clip-rule="evenodd" d="M12 2C17.523 2 22 6.477 22 12C22.0016 13.403 21.7072 14.7909 21.1357 16.0723C20.5643 17.3535 19.7283 18.4992 18.6836 19.4355L18.6719 19.4463C16.8403 21.0933 14.4632 22.003 12 22C6.477 22 2 17.523 2 12C2 6.477 6.477 2 12 2ZM9.75 16.5C9.08302 16.5003 8.43191 16.706 7.88574 17.0889C7.33986 17.4716 6.92505 18.0131 6.69727 18.6396C8.20135 19.8458 10.072 20.5024 12 20.5C13.928 20.5024 15.7986 19.8458 17.3027 18.6396C17.075 18.0131 16.6601 17.4716 16.1143 17.0889C15.5681 16.706 14.917 16.5003 14.25 16.5H9.75ZM12 3.5C10.3747 3.50066 8.78327 3.96741 7.41504 4.84473C6.04694 5.72204 4.95906 6.9735 4.28027 8.4502C3.60154 9.92688 3.35997 11.5672 3.58496 13.1768C3.81 14.7864 4.49199 16.2982 5.5498 17.5322C5.95333 16.7681 6.55776 16.1278 7.29785 15.6816C8.03791 15.2355 8.88587 15.0001 9.75 15H14.25C15.1141 15.0001 15.9621 15.2355 16.7021 15.6816C17.4422 16.1278 18.0467 16.7681 18.4502 17.5322C19.7752 15.9939 20.5026 14.0302 20.5 12C20.5 9.74566 19.6048 7.58332 18.0107 5.98926C16.4167 4.3952 14.2543 3.5 12 3.5Z" fill="#3E3735"/>
<path fill-rule="evenodd" clip-rule="evenodd" d="M12 6C13.0609 6 14.0783 6.42143 14.8284 7.17157C15.5786 7.92172 16 8.93913 16 10C16 11.0609 15.5786 12.0783 14.8284 12.8284C14.0783 13.5786 13.0609 14 12 14C10.9391 14 9.92172 13.5786 9.17157 12.8284C8.42143 12.0783 8 11.0609 8 10C8 8.93913 8.42143 7.92172 9.17157 7.17157C9.92172 6.42143 10.9391 6 12 6ZM12 7.5C11.337 7.5 10.7011 7.76339 10.2322 8.23223C9.76339 8.70107 9.5 9.33696 9.5 10C9.5 10.663 9.76339 11.2989 10.2322 11.7678C10.7011 12.2366 11.337 12.5 12 12.5C12.663 12.5 13.2989 12.2366 13.7678 11.7678C14.2366 11.2989 14.5 10.663 14.5 10C14.5 9.33696 14.2366 8.70107 13.7678 8.23223C13.2989 7.76339 12.663 7.5 12 7.5Z" fill="#3E3735"/>
</g>
<defs>
<clipPath id="clip0_368_6049">
<rect width="24" height="24" fill="white"/>
</clipPath>
</defs>
</svg>
